HIERARCHY
ROOT Hips
{
  OFFSET -2.35817 99.5522 45.6721
  CHANNELS 6 Xposition Yposition Zposition Zrotation Xrotation Yrotation
  JOINT RightUpLeg
  {
    OFFSET -8.9458 -8.66707 0.101652
    CHANNELS 3 Zrotation Xrotation Yrotation
    JOINT RightLeg
    {
      OFFSET 0 -44.4227 1.3727
      CHANNELS 3 Zrotation Xrotation Yrotation
      JOINT RightFoot
      {
        OFFSET 0.253549 -42.0924 -1.46059
        CHANNELS 3 Zrotation Xrotation Yrotation
        JOINT RightToes
        {
          OFFSET 0.04 -4.41509 8.4991
          CHANNELS 3 Zrotation Xrotation Yrotation
          End Site
          {
            OFFSET -0.08 -0.137448 9.77979
          }
        }
      }
    }
  }
  JOINT Spine
  {
    OFFSET 0 11.8905 0
    CHANNELS 3 Zrotation Xrotation Yrotation
    JOINT Spine1
    {
      OFFSET 0 25.6574 0.127663
      CHANNELS 3 Zrotation Xrotation Yrotation
      JOINT HEad
      {
        OFFSET 0 8.73416 0.011341
        CHANNELS 3 Zrotation Xrotation Yrotation
        End Site
        {
          OFFSET -0.29 12.7742 2.51395
        }
      }
      JOINT LeftShoulder1
      {
        OFFSET 8.99 -0.362252 -0.22
        CHANNELS 3 Zrotation Xrotation Yrotation
        JOINT LeftArm
        {
          OFFSET 10.2827 -0.00338 0.322123
          CHANNELS 3 Zrotation Xrotation Yrotation
          JOINT LeftForeArm
          {
            OFFSET 32.7669 0.099144 -1.42434
            CHANNELS 3 Zrotation Xrotation Yrotation
            JOINT LeftHand
            {
              OFFSET 27.5643 0.085362 1.02216
              CHANNELS 3 Zrotation Xrotation Yrotation
              End Site
              {
                OFFSET 16.7443 -0.6 1.50291
              }
            }
          }
        }
      }
      JOINT RightShoulder
      {
        OFFSET -8.99 -0.362252 -0.22
        CHANNELS 3 Zrotation Xrotation Yrotation
        JOINT RightArm
        {
          OFFSET -10.2827 -0.00338 0.322123
          CHANNELS 3 Zrotation Xrotation Yrotation
          JOINT RightForeArm
          {
            OFFSET -32.8971 0.099144 -1.42434
            CHANNELS 3 Zrotation Xrotation Yrotation
            JOINT RightHand
            {
              OFFSET -27.4921 0.085362 1.02216
              CHANNELS 3 Zrotation Xrotation Yrotation
              End Site
              {
                OFFSET -16.6312 -0.6 1.50291
              }
            }
          }
        }
      }
    }
  }
  JOINT LeftUpLeg
  {
    OFFSET 8.9458 -8.66707 0.101652
    CHANNELS 3 Zrotation Xrotation Yrotation
    JOINT LeftLeg
    {
      OFFSET 0 -44.4227 1.3727
      CHANNELS 3 Zrotation Xrotation Yrotation
      JOINT LeftFoot
      {
        OFFSET -0.253549 -42.0924 -1.46059
        CHANNELS 3 Zrotation Xrotation Yrotation
        JOINT LeftToes
        {
          OFFSET -0.04 -4.41509 8.4991
          CHANNELS 3 Zrotation Xrotation Yrotation
          End Site
          {
            OFFSET 0.08 -0.047448 9.77979
          }
        }
      }
    }
  }
}
MOTION
Frames:	8
Frame Time:	0.0166667
-8.89283 99.2354 202.035 0.577829 -0.0146925 -179.133 3.27299 -26.1407 -0.392621 3.40884 22.2814 -14.3321 -0.0119176 -8.41935 -0.216663 0.0462048 0.000533964 0.662642 0.315495 3.00424 0.999989 5.32073 1.26108 -0.0858281 -0.283558 -0.473435 3.11638 7.45443e-017 1.59028e-015 5.96354e-016 -85.179 -8.89115 -24.389 -30.6493 10.6432 -1.91946 0.368473 9.90896 -0.00117925 -4.93704 0.246308 2.46621 82.685 -37.0053 4.13985 20.4995 12.8946 5.88588 -0.369625 9.91382 0.00119884 1.22803 5.37515 0.203004 -8.90977 33.5313 20.5805 -19.4812 -5.44259 -0.251279 -6.79048e-013 -1.27795e-011 -1.83836e-012 
-8.52771 99.4487 200.408 1.02127 0.311916 -179.013 4.13407 -24.9092 0.7918 3.68824 22.6458 -15.273 -0.108045 -9.44701 -0.228841 0.0462048 0.000533964 0.662642 0.609097 3.09526 0.964193 5.39913 1.79398 -0.117272 0.370739 0.179775 2.72004 4.96962e-017 1.59028e-015 3.97569e-016 -85.6062 -10.9004 -23.0222 -29.6694 10.5589 -0.9135 0.368473 9.90896 -0.00117925 -4.39224 0.232713 1.61024 83.5225 -36.3169 5.75534 20.3918 12.8257 5.45639 -0.369625 9.91382 0.00119884 2.58447 4.15099 -0.308024 -9.84995 36.9441 22.1072 -19.5196 -1.92715 0.355744 7.2158 -1.54885 -0.680471 
-8.17597 99.6278 198.824 1.44503 0.589473 -178.813 4.8424 -23.7855 1.58914 3.95891 23.0882 -16.0008 -0.172216 -10.5608 -0.23941 0.0462048 0.000533964 0.662642 0.9408 3.18011 0.915761 5.45452 2.29278 -0.145602 1.01136 0.705677 2.30572 -1.49089e-016 0 5.96354e-016 -85.8905 -12.8025 -21.7688 -28.7153 10.478 0.065401 0.368473 9.90896 -0.00117925 -3.88234 0.218017 0.816246 84.2569 -35.563 7.20579 20.3669 12.787 5.21209 -0.369625 9.91382 0.00119884 3.79321 2.66266 -0.743025 -10.7118 40.5687 23.4243 -19.5682 1.45698 0.934084 13.0537 -2.33718 -1.17004 
-7.84458 99.7145 197.351 1.83156 0.754978 -178.348 5.28939 -22.9452 1.2915 4.13818 23.7588 -16.0746 -0.148029 -11.9214 -0.2463 0.0462048 0.000533964 0.662642 1.38315 3.25366 0.821732 5.40295 2.727 -0.164909 1.65976 0.88591 1.82571 2.48481e-017 1.59028e-015 3.97569e-016 -85.9574 -14.3652 -20.7546 -27.7805 10.4432 0.88241 0.368473 9.90896 -0.00117925 -3.37469 0.196988 0.0887986 84.7505 -34.5815 8.26414 20.6289 12.8236 5.44746 -0.369625 9.91382 0.00119884 4.67989 0.439653 -0.982806 -10.8162 45.035 23.617 -19.4892 4.85076 1.50374 16.09 -0.922466 -1.23522 
-7.56621 99.7476 195.955 2.15942 0.80118 -177.853 5.56623 -22.3438 0.631253 4.34945 24.5751 -15.9357 -0.0746116 -13.3916 -0.248807 0.0462048 0.000533964 0.662642 1.87067 3.30653 0.730449 5.40114 3.05175 -0.180326 2.14361 0.863644 1.34915 -2.48481e-015 -7.95139e-016 3.97569e-016 -85.9512 -15.6775 -19.9877 -27.0038 10.355 1.83653 0.368473 9.90896 -0.00117925 -3.10509 0.18127 -0.337944 85.2129 -33.7052 9.08177 20.9014 12.9245 6.01878 -0.369625 9.91382 0.00119884 5.28025 -2.16127 -1.09278 -10.4096 49.7167 23.5447 -19.3851 7.30419 1.91364 15.2867 1.40655 -0.807344 
-7.39543 99.7344 194.632 2.3933 0.647955 -177.525 5.60875 -22.0956 0.0715918 4.77153 25.5816 -15.9184 0.0579482 -14.9571 -0.241562 0.0462048 0.000533964 0.662642 2.38232 3.32418 0.685206 5.62468 3.151 -0.19357 2.24572 0.671257 0.902794 2.48481e-016 -1.59028e-015 -3.97569e-016 -86.0083 -16.7148 -19.6046 -26.5436 10.0736 3.37467 0.368473 9.90896 -0.00117925 -3.40303 0.184628 -0.137124 85.8456 -33.2973 9.64495 20.9435 13.1193 7.00766 -0.369625 9.91382 0.00119884 5.50728 -5.02263 -0.999969 -9.69303 54.218 23.9285 -19.3383 7.75372 1.97753 6.97124 4.21356 0.577966 
-7.27355 99.712 193.356 2.56803 0.451599 -177.296 5.59456 -21.8995 -0.360363 5.20881 26.5258 -15.9223 0.160012 -16.4104 -0.236059 0.0462048 0.000533964 0.662642 2.85645 3.317 0.668227 5.93338 3.2077 -0.208958 2.13078 0.423535 0.566666 9.93923e-016 7.95139e-016 -3.97569e-016 -86.0583 -17.6029 -19.3653 -26.2935 9.74877 4.91108 0.368473 9.90896 -0.00117925 -3.95337 0.19545 0.417731 86.5939 -33.0771 10.2433 20.8392 13.3232 8.03577 -0.369625 9.91382 0.00119884 5.57993 -7.8985 -0.995135 -9.15958 58.2163 24.7315 -19.132 6.68926 1.77568 -2.6639 6.3803 1.98773 
-7.16336 99.7295 192.099 2.68624 0.344505 -177.188 5.69709 -21.4573 -0.406052 5.49711 27.0911 -16.0294 0.186704 -17.4233 -0.233956 0.0462048 0.000533964 0.662642 3.18218 3.28518 0.685251 6.25183 3.38568 -0.233087 1.85277 0.246982 0.474929 1.93815e-015 -7.95139e-016 3.97569e-016 -86.1001 -18.5484 -19.1264 -26.1843 9.49406 6.05314 0.368473 9.90896 -0.00117925 -4.57695 0.208097 1.23618 87.4596 -32.9182 11.157 20.581 13.4758 8.78123 -0.369625 9.91382 0.00119884 5.62183 -10.4757 -1.39353 -9.52536 61.1884 26.374 -18.4992 3.87186 1.26761 -7.40813 6.07359 2.41261 
